<?xml version="1.0" encoding="utf-8"?>
<!-- Generator: Adobe Illustrator 23.0.5, SVG Export Plug-In . SVG Version: 6.00 Build 0)  -->
<svg version="1.1" id="Capa_1" xmlns="http://www.w3.org/2000/svg" xmlns:xlink="http://www.w3.org/1999/xlink" x="0px" y="0px"
	 viewBox="0 0 2370.2 850.9" style="enable-background:new 0 0 2370.2 850.9;" xml:space="preserve">
<style type="text/css">
	.st0{display:none;}
	.st1{display:inline;fill:#727272;}
	.st2{fill:#FFFFFF;stroke:#FFFFFF;stroke-width:13;stroke-miterlimit:10;}
	.st3{fill:#66BFB2;}
	.st4{fill:#FFFFFF;stroke:#FFFFFF;stroke-width:18;stroke-miterlimit:10;}
	.st5{fill:#990000;}
	.st6{fill:#736358;}
</style>
<g>
	<g class="st0">
		<rect x="14" y="0" class="st1" width="2341.1" height="850.9"/>
	</g>
	<g>
		<path class="st2" d="M1315.9,195.4c0-4.6,3.5-8.1,7.9-8.1c4.6,0,8.1,3.5,8.1,8.1v14.5c8.7-12.8,21.3-23.8,41-23.8
			c25.7,0,51.1,20.3,51.1,55.5v0.4c0,35-25.3,55.7-51.1,55.7c-19.9,0-32.7-10.8-41-22.8v46.6c0,4.6-3.3,8.1-7.9,8.1
			s-8.1-3.5-8.1-8.1V195.4z M1407.6,242.2v-0.4c0-25.3-17.4-41.4-37.7-41.4c-19.9,0-38.7,16.8-38.7,41.2v0.4
			c0,24.8,18.8,41.4,38.7,41.4C1390.6,283.4,1407.6,268.1,1407.6,242.2"/>
		<path class="st2" d="M1662,242.4V242c0-30.2,23.6-55.9,55.9-55.9c32.1,0,55.7,25.3,55.7,55.5v0.4c0,30.2-23.8,55.9-56.1,55.9
			C1685.4,297.9,1662,272.6,1662,242.4 M1757.3,242.4V242c0-23-17.2-41.8-39.8-41.8c-23.2,0-39.1,18.8-39.1,41.4v0.4
			c0,23,17,41.6,39.5,41.6C1741.1,283.6,1757.3,265,1757.3,242.4"/>
		<path class="st2" d="M2019.2,151.3c0-4.3,3.5-8.1,7.9-8.1c4.6,0,8.1,3.7,8.1,8.1v137.1c0,4.6-3.3,8.1-7.9,8.1s-8.1-3.5-8.1-8.1
			V151.3z"/>
		<path class="st2" d="M2287.5,154.8c0-5.2,4.1-8.5,9.3-8.5c5.4,0,9.5,3.3,9.5,8.5v2.7c0,5-4.1,8.5-9.5,8.5c-5.2,0-9.3-3.5-9.3-8.5
			V154.8z M2288.9,195.4c0-4.3,3.5-8.1,7.9-8.1c4.5,0,8.1,3.5,8.1,8.1v93c0,4.6-3.3,8.1-7.9,8.1c-4.6,0-8.1-3.5-8.1-8.1V195.4z"/>
		<path class="st2" d="M74.3,306.6c-29.4,0-53.4-22.6-53.4-55.7v-0.4c0-30.8,21.7-55.7,51.4-55.7c31.7,0,49.7,25.9,49.7,54.3
			c0,4.4-3.5,7.5-7.5,7.5H37.1c2.3,23.2,18.6,36.2,37.7,36.2c13.3,0,23-5.2,30.9-12.4c1.2-1,2.7-1.9,4.6-1.9c3.9,0,7,3.1,7,6.8
			c0,1.9-0.8,3.7-2.5,5.2C104.6,300.2,92.6,306.6,74.3,306.6 M106,244.7c-1.7-19.5-12.8-36.4-34.2-36.4c-18.6,0-32.7,15.5-34.8,36.4
			L106,244.7L106,244.7z"/>
		<path class="st2" d="M354.7,251.1v-0.4c0-30.2,23.6-55.9,54.9-55.9c17.8,0,29.8,6.8,39.3,15.5c1.2,1,2.5,3.1,2.5,5.6
			c0,4.3-3.5,7.7-7.7,7.7c-2.1,0-3.9-0.8-5.2-1.9c-7.7-7-16.4-12.8-29.2-12.8c-21.7,0-38.3,18.4-38.3,41.4v0.4
			c0,23.2,17,41.6,39.3,41.6c12.2,0,21.9-5.6,29.8-13c1-1,2.5-2.1,4.6-2.1c3.9,0,7.2,3.5,7.2,7.2c0,1.9-0.8,3.7-2.1,5
			c-10.1,10.1-22.4,17.2-40.4,17.2C378.3,306.6,354.7,281.2,354.7,251.1"/>
		<path class="st2" d="M680.9,251.1v-0.4c0-30.2,23.6-55.9,54.9-55.9c17.8,0,29.8,6.8,39.3,15.5c1.2,1,2.5,3.1,2.5,5.6
			c0,4.3-3.5,7.7-7.7,7.7c-2.1,0-3.9-0.8-5.2-1.9c-7.7-7-16.4-12.8-29.2-12.8c-21.7,0-38.3,18.4-38.3,41.4v0.4
			c0,23.2,17,41.6,39.3,41.6c12.2,0,21.9-5.6,29.8-13c1-1,2.5-2.1,4.6-2.1c3.9,0,7.2,3.5,7.2,7.2c0,1.9-0.8,3.7-2.1,5
			c-10.1,10.1-22.4,17.2-40.4,17.2C704.5,306.6,680.9,281.2,680.9,251.1"/>
	</g>
	<path class="st3" d="M2036.3,591.6c-2.3-5.5-5.4-10.4-8.9-14.9c-7.1-8.9-15.7-16.2-24.7-22.5s-18.5-11.9-28.1-16.8
		c-9.7-5-19.6-9.5-29.5-13.6c-20-8.3-40.5-15.2-61.1-21.5s-41.5-11.7-62.4-16.8c-41.9-10-84.1-18-126.5-25
		c-42.4-6.9-85-12.6-127.7-17.5s-85.4-9-128.2-12.4c-42.8-3.4-85.6-6.1-128.5-8.3c-42.9-2.2-85.8-3.7-128.7-4.8
		c-32-0.8-64-1.3-95.9-1.6c-0.4-0.8-0.8-1.5-1.3-2.3c-0.8-1.2-1.8-2.2-2.9-3.2c-1.1-0.9-2.2-1.8-3.4-2.4c-4.9-2.7-10.4-3.7-15.8-3.4
		c-5.4-0.2-10.9,0.7-15.8,3.4c-1.2,0.7-2.4,1.5-3.4,2.4c-1.1,0.9-2,2-2.9,3.2c-0.5,0.7-0.9,1.4-1.3,2.2c-38.2,0-76.5,0.5-114.7,1.4
		c-42.9,1-85.8,2.6-128.7,4.7c-85.7,4.3-171.4,10.9-256.7,20.9c-42.6,5-85.2,10.8-127.6,17.7c-42.4,7-84.6,15.1-126.5,25.1
		c-20.9,5-41.7,10.5-62.4,16.8c-20.6,6.2-41.1,13.2-61.1,21.5c-10,4.1-19.9,8.6-29.6,13.6s-19.1,10.5-28.1,16.8
		s-17.6,13.6-24.7,22.5c-3.5,4.5-6.7,9.4-8.9,14.8C68,597,66.7,603,66.6,609c0,6,1.2,12,3.5,17.5c2.2,5.5,5.3,10.5,8.8,15
		c7.1,9,15.6,16.4,24.5,22.9c9,6.5,18.4,12.1,28,17.2c9.6,5.1,19.5,9.7,29.5,14c20,8.5,40.4,15.7,61,22.2s41.4,12.3,62.3,17.5
		c41.8,10.5,84.1,19,126.5,26.5c42.4,7.4,85,13.7,127.7,19s85.5,9.8,128.3,13.6c42.8,3.7,85.7,6.9,128.7,9.2
		c85.9,4.8,171.9,7.1,257.8,7.3c43,0,86-0.5,129-1.6s86-2.9,128.9-5.3c42.9-2.4,85.8-5.5,128.7-9.2c42.8-3.8,85.6-8.4,128.3-13.7
		c42.7-5.4,85.3-11.7,127.7-19.2c42.4-7.5,84.6-16.1,126.4-26.6c20.9-5.3,41.7-11,62.3-17.5c20.6-6.5,41-13.8,61-22.2
		c10-4.3,19.8-8.8,29.5-13.9c9.7-5.1,19.1-10.7,28.1-17.1c8.9-6.5,17.5-13.8,24.6-22.8c3.5-4.5,6.6-9.5,8.8-15
		c2.3-5.5,3.5-11.5,3.5-17.5C2039.9,603.1,2038.6,597.1,2036.3,591.6z M1040.4,422.2c0.6-4.9,3.3-9.4,7.6-12.1
		c2.1-1.4,4.5-2.4,7-3.1c0.3-0.1,0.6-0.2,0.9-0.2c-12.9,3.6-14.6,17.2-14.6,17.2h21.3h0.1h21.3c0,0-1.7-13.6-14.6-17.2
		c0.3,0.1,0.6,0.1,0.9,0.2c2.5,0.7,4.9,1.7,7,3.1c4.3,2.7,7,7.2,7.6,12.1c0.4,2.5,0.2,5,0,7.5c-0.1,1.3-0.3,2.6-0.5,3.8
		c-0.2,1.3-0.5,2.5-0.8,3.8c-1.2,5-2.8,10-4.6,15c-1.7,5-3.5,10.1-4.8,15.4l-0.5,2l-0.4,2c-0.3,1.3-0.4,2.7-0.6,4.1
		s-0.2,2.8-0.3,4.2c0,1.4,0,2.7,0,4.1c0.1,3.1,0.4,6.3,0.8,9.4c-1.8,2.7-5.1,5.6-10.6,4.1l0,0l0,0l0,0l0,0
		c-5.5,1.5-8.8-1.4-10.6-4.1c0.5-3.1,0.8-6.2,0.8-9.4c0-1.4,0-2.7,0-4.1c-0.1-1.4-0.1-2.8-0.3-4.2c-0.2-1.4-0.3-2.7-0.6-4.1l-0.4-2
		l-0.5-2c-1.3-5.3-3.1-10.4-4.8-15.4c-1.7-5-3.4-10-4.6-15c-0.2-1.3-0.5-2.5-0.8-3.8c-0.2-1.3-0.4-2.5-0.5-3.8
		C1040.1,427.2,1040,424.7,1040.4,422.2z M1062.6,517.2L1062.6,517.2L1062.6,517.2c-9.4,0.6-12.4-6.6-13.2-12.7
		c0.3-0.9,0.5-1.7,0.8-2.6c2.9,8.5,12,8,12.5,8c0.4,0,9.5,0.6,12.5-8c0.2,0.9,0.5,1.7,0.8,2.6C1075,510.7,1072.1,517.8,1062.6,517.2
		L1062.6,517.2C1062.7,517.2,1062.7,517.2,1062.6,517.2z M1088.5,526.6c0.7,0.8,1.4,1.5,2.1,2.3c3.8,4,8.1,7.4,12.6,10.4
		c0.6,0.4,1.1,0.8,1.7,1.1l1.8,1c1.2,0.7,2.3,1.4,3.6,2c2.4,1.2,4.8,2.4,7.4,3.4c5,2.2,10.1,3.8,15.3,5.2c10.4,2.8,21,4.5,31.7,5.2
		s21.3,0.8,32,0.3v-1c-10.6-0.2-21.2-0.6-31.7-1.7c-10.5-1.2-20.9-3-31-6c-5-1.6-10-3.2-14.7-5.4c-2.4-1-4.7-2.3-7-3.5
		c-1.2-0.6-2.2-1.3-3.4-2l-1.7-1c-0.5-0.4-1.1-0.7-1.6-1.1c-4.7-3.1-9.1-6.9-12.8-11.1c4,0.1,8,0.1,12.1,0.2
		c16.4,0.4,32.9,1,49.3,1.8s32.8,1.9,49.2,3.2c16.4,1.3,32.8,2.9,49.1,4.8c32.6,3.8,65.2,8.6,97.2,15.5c16,3.5,31.9,7.6,47.2,13
		c7.6,2.8,15.1,5.9,21.9,9.9c3.4,2,6.6,4.2,9.1,6.9c2.6,2.6,4.2,5.6,4.2,8.3c0,2.8-1.8,5.7-4.4,8.2c-2.5,2.5-5.8,4.7-9.2,6.6
		c-6.8,3.9-14.3,6.8-22,9.4c-15.3,5.2-31.2,8.9-47.2,12.1c-16,3.2-32.2,5.6-48.4,7.8c-16.2,2.2-32.5,3.9-48.8,5.4
		c-32.6,3-65.4,5-98.2,6.4c-32.8,1.3-65.6,2.1-98.4,2.1c-32.8,0.1-65.6-0.4-98.4-1.8c-32.8-1.3-65.5-3.3-98.2-6.4
		c-32.6-3.1-65.2-7.1-97.3-13.4c-16-3.2-31.9-6.9-47.3-12c-7.6-2.6-15.2-5.6-22-9.4c-3.4-1.9-6.7-4.1-9.2-6.6
		c-2.6-2.5-4.4-5.5-4.4-8.3s1.7-5.9,4.2-8.4c2.5-2.6,5.8-4.9,9.1-6.9c6.8-4,14.3-7.1,21.9-9.9c15.3-5.5,31.2-9.5,47.2-13.1
		c16-3.5,32.2-6.4,48.4-8.9s32.5-4.6,48.9-6.4c57.8-6.4,116-9.3,174.2-10.1c-3.8,4.2-8.1,8-12.9,11.2c-0.5,0.4-1.1,0.7-1.6,1.1
		l-1.7,1c-1.1,0.6-2.2,1.4-3.4,2c-2.3,1.2-4.6,2.5-7,3.5c-4.7,2.2-9.7,3.9-14.7,5.4c-10.1,3-20.5,4.8-31,6s-21.1,1.6-31.7,1.7v1
		c10.6,0.5,21.3,0.4,32-0.3s21.3-2.4,31.7-5.2c5.2-1.5,10.3-3.1,15.3-5.2c2.5-1,4.9-2.2,7.4-3.4c1.2-0.6,2.4-1.3,3.6-2l1.8-1
		c0.6-0.4,1.1-0.8,1.7-1.1c3.3-2.1,6.5-4.6,9.4-7.2l5.4-5.5C1036.8,526.6,1060.4,544.7,1088.5,526.6z M1046.9,469.4l0.3,1.3l0.3,1.9
		c0.3,1.3,0.4,2.5,0.5,3.8c0.2,1.3,0.2,2.5,0.3,3.8c0,1.3,0,2.6,0,3.9c-0.1,5.2-0.8,10.3-2,15.3c-1.3,5-3.2,9.8-5.6,14.3
		c-2,3.6-4.3,6.9-6.9,10c-25.7,0.2-51.3,0.7-77,1.8c-16.4,0.7-32.9,1.5-49.3,2.6c-16.4,1.1-32.8,2.4-49.2,3.9
		c-32.8,3.2-65.5,7.2-98,13.5c-16.2,3.2-32.3,7-48.1,12.3c-7.9,2.7-15.7,5.7-23.2,10c-3.7,2.1-7.4,4.5-10.6,7.7
		c-1.6,1.6-3.1,3.5-4.3,5.6c-1.2,2.2-2,4.8-2.1,7.5c0,2.7,0.8,5.3,1.9,7.5c1.2,2.2,2.7,4.1,4.3,5.7c3.2,3.3,6.9,5.8,10.6,8
		c7.4,4.4,15.2,7.6,23.1,10.5c15.8,5.6,31.9,9.7,48.1,13.3c16.2,3.5,32.5,6.4,48.8,9c16.3,2.5,32.7,4.7,49.1,6.5
		c32.8,3.6,65.8,6.1,98.7,7.8c33,1.6,66,2.5,99,2.6c33,0.1,66-0.6,99-2.3c33-1.6,65.9-4.2,98.7-7.9c32.8-3.8,65.6-8.6,98-15.6
		c16.2-3.6,32.3-7.6,48.1-13.3c7.9-2.9,15.7-6.1,23.1-10.5c3.7-2.2,7.4-4.7,10.6-8c1.6-1.6,3.1-3.6,4.3-5.8c1.2-2.2,2-4.9,2-7.6
		c0-2.7-0.9-5.4-2.1-7.6c-1.2-2.2-2.7-4.1-4.4-5.7c-3.3-3.3-7-5.6-10.7-7.8c-7.5-4.2-15.3-7.3-23.2-10c-15.8-5.3-32-9.1-48.2-12.3
		s-32.5-5.7-48.9-7.9c-16.3-2.2-32.7-3.9-49.1-5.4s-32.8-2.8-49.3-3.8c-16.4-1.1-32.9-1.9-49.3-2.5c-16.4-0.7-32.9-1.2-49.3-1.5
		c-4.3-0.1-8.6-0.2-12.9-0.2c-2.7-3.2-5.2-6.6-7.2-10.3c-2.5-4.5-4.4-9.3-5.6-14.3c-1.3-5-1.9-10.1-2-15.3c0-1.3,0-2.6,0-3.9
		c0.1-1.3,0.1-2.5,0.3-3.8c0.2-1.3,0.3-2.5,0.5-3.8l0.3-1.9l0.3-1.4c22.6,0.1,45.1,0.4,67.7,1c27.6,0.7,55.3,1.9,82.9,3.5
		c27.6,1.5,55.2,3.6,82.7,6.1s55,5.5,82.4,9.1c54.8,7.2,109.4,16.4,162.8,29.9c13.3,3.4,26.6,7.1,39.7,11.3s26,8.8,38.6,14.2
		c3.2,1.3,6.2,2.8,9.3,4.2c3.1,1.5,6.1,3,9.1,4.6c6,3.2,11.8,6.6,17.1,10.5c5.4,3.9,10.3,8.3,14.2,13.2l1.3,1.9l0.7,0.9l0.6,1
		c0.4,0.7,0.8,1.3,1.1,2l0.9,2c1,2.7,1.6,5.5,1.7,8.3c-0.1,2.8-0.7,5.6-1.8,8.2l-0.9,2c-0.3,0.7-0.8,1.3-1.1,1.9l-0.6,1l-0.7,0.9
		l-1.4,1.9c-3.9,4.8-8.9,9.1-14.3,12.9c-5.4,3.8-11.2,7.1-17.2,10.2c-3,1.6-6.1,3-9.1,4.4c-3.1,1.4-6.2,2.8-9.3,4
		c-12.6,5.2-25.6,9.5-38.7,13.5c-13.1,3.9-26.4,7.4-39.8,10.5c-26.7,6.3-53.8,11.3-81,15.7c-27.2,4.3-54.5,7.9-81.9,10.9
		c-27.4,3.1-54.8,5.6-82.3,7.7c-27.5,2.1-55,3.8-82.6,5.2c-27.5,1.4-55.1,2.3-82.7,3s-55.2,1.1-82.7,1.1
		c-55.2,0.1-110.4-1.1-165.4-3.7c-55.1-2.7-110.1-6.7-164.9-13c-54.7-6.3-109.4-14.4-162.8-26.9c-13.4-3.2-26.6-6.6-39.8-10.5
		c-13.1-4-26.1-8.3-38.6-13.4c-3.2-1.3-6.2-2.6-9.4-4c-3.1-1.4-6.1-2.8-9.1-4.4c-6-3.1-11.8-6.4-17.2-10.2
		c-5.4-3.8-10.4-8-14.3-12.8l-1.4-1.9l-0.7-0.9l-0.6-1c-0.4-0.6-0.8-1.3-1.1-1.9l-0.9-2c-1.1-2.7-1.7-5.5-1.8-8.2
		c0-2.8,0.6-5.6,1.6-8.3l0.9-2c0.3-0.7,0.7-1.3,1.1-2l0.6-1l0.7-0.9l1.3-1.9c3.9-4.9,8.8-9.3,14.2-13.2c5.4-3.9,11.2-7.4,17.1-10.6
		c3-1.6,6-3.1,9.1-4.6c3.1-1.4,6.2-2.9,9.3-4.2c12.5-5.4,25.5-10,38.6-14.2s26.4-7.9,39.7-11.3c26.7-6.8,53.8-12.3,81-17.2
		c27.2-4.8,54.5-8.9,81.9-12.4C836.5,476,941.7,470.2,1046.9,469.4z M2027.3,622.9c-1.8,4.5-4.5,8.6-7.6,12.6
		c-6.3,7.8-14.2,14.6-22.7,20.6s-17.6,11.3-27,16.1s-19,9.2-28.8,13.3c-19.6,8.1-39.8,15-60.2,21.2c-20.4,6.2-41.1,11.6-61.8,16.6
		c-41.6,9.9-83.6,17.9-125.8,24.8c-42.2,6.9-84.7,12.6-127.2,17.4c-42.5,4.9-85.2,8.9-127.9,12.3c-42.7,3.4-85.4,6.1-128.2,8.3
		c-42.8,2.2-85.6,3.7-128.4,4.8s-85.7,1.7-128.5,1.7c-42.8,0.1-85.7-0.4-128.5-1.4s-85.6-2.5-128.4-4.7
		c-85.6-4.3-171-10.8-256.1-20.8c-42.5-5-85-10.7-127.2-17.6c-42.2-6.9-84.2-15-125.8-24.9c-20.8-5-41.4-10.4-61.8-16.6
		c-20.4-6.2-40.6-13.1-60.2-21.1c-9.8-4.1-19.5-8.4-28.8-13.2c-9.4-4.8-18.5-10.1-27-16.1S93,643.5,86.7,635.6
		c-3.1-3.9-5.8-8.1-7.6-12.6c-1.9-4.4-2.9-9.1-2.9-13.8s0.9-9.4,2.8-13.9c1.8-4.5,4.4-8.7,7.5-12.7c6.2-8,14.1-14.8,22.6-21
		c8.5-6.1,17.6-11.5,26.9-16.5c9.4-5,19-9.4,28.8-13.6c19.6-8.3,39.7-15.5,60.1-21.9s41-12.1,61.8-17.4
		c41.5-10.4,83.6-18.9,125.8-26.3s84.7-13.6,127.2-18.9c42.6-5.3,85.2-9.8,128-13.5c42.7-3.7,85.5-6.8,128.4-9.2
		c80.9-4.5,161.8-6.8,242.8-7.2c-0.7,1.5-1.2,3.1-1.5,4.7c-0.5,2.8-0.6,5.6-0.4,8.3c0,1.4,0.3,2.7,0.4,4.1c0.2,1.4,0.4,2.7,0.7,4
		c1,5.3,2.6,10.5,4.3,15.6c1.6,4.9,3.2,9.7,4.3,14.6c-49.8,0.1-99.6,1.3-149.4,3.8c-55.3,2.7-110.5,6.8-165.5,13.1
		c-55,6.4-109.9,14.4-164,27.2c-13.5,3.2-27,6.7-40.3,10.7s-26.6,8.4-39.5,13.8c-3.3,1.3-6.5,2.7-9.7,4.1c-3.2,1.5-6.4,3-9.5,4.6
		c-6.3,3.2-12.5,6.7-18.3,10.9c-5.9,4.1-11.5,8.9-16.3,14.7c-0.6,0.8-1.1,1.5-1.7,2.3l-0.8,1.2l-0.7,1.3c-0.5,0.8-1,1.7-1.5,2.5
		l-1.2,2.7c-1.5,3.7-2.5,7.7-2.5,11.9c0,4.1,0.9,8.2,2.4,11.9l1.2,2.7c0.4,0.9,1,1.7,1.4,2.6l0.7,1.3l0.8,1.2
		c0.6,0.8,1.1,1.6,1.7,2.4c4.7,6,10.3,10.9,16.1,15.1c5.9,4.3,12,7.9,18.3,11.3c3.1,1.7,6.3,3.2,9.5,4.8c3.2,1.5,6.4,3,9.6,4.3
		c12.9,5.6,26.1,10.3,39.4,14.5c13.3,4.3,26.8,8,40.3,11.4c27,6.9,54.3,12.5,81.6,17.3c27.4,4.8,54.8,9,82.4,12.5
		c110.2,13.9,221.2,19.6,332.2,20c27.7,0,55.5-0.3,83.2-1s55.5-1.9,83.2-3.5c27.7-1.5,55.4-3.7,83-6.1c27.6-2.5,55.2-5.6,82.8-9.1
		c55.1-7.3,110-16.5,164-30.2c13.5-3.5,26.9-7.2,40.2-11.5c13.3-4.3,26.5-9,39.4-14.5c3.2-1.4,6.4-2.9,9.6-4.3
		c3.2-1.6,6.4-3.1,9.5-4.8c6.3-3.3,12.4-7,18.3-11.2c5.8-4.3,11.5-9.1,16.2-15.1c0.6-0.8,1.1-1.6,1.7-2.4l0.8-1.2l0.7-1.3
		c0.5-0.9,1-1.7,1.4-2.6l1.2-2.7c1.5-3.7,2.4-7.8,2.4-12c-0.1-4.1-1-8.2-2.5-11.9l-1.2-2.7c-0.4-0.9-1-1.7-1.5-2.5l-0.7-1.3
		l-0.8-1.2c-0.6-0.8-1.1-1.6-1.7-2.3c-4.8-5.9-10.4-10.6-16.3-14.8c-5.9-4.1-12.1-7.7-18.3-10.9c-3.1-1.6-6.3-3.1-9.5-4.6
		c-3.2-1.4-6.4-2.9-9.7-4.2c-13-5.4-26.2-9.8-39.5-13.8s-26.8-7.5-40.3-10.7c-27-6.4-54.3-11.4-81.7-15.8c-27.4-4.3-54.8-8-82.4-11
		c-27.5-3.1-55.1-5.6-82.7-7.7c-27.6-2.2-55.2-3.8-82.9-5.2c-27.6-1.4-55.3-2.3-82.9-3c-22.5-0.6-45-0.9-67.5-1
		c1.2-4.9,2.8-9.7,4.3-14.6c1.6-5.1,3.2-10.2,4.3-15.6c0.2-1.3,0.5-2.7,0.7-4c0.1-1.4,0.4-2.7,0.4-4.1c0.2-2.7,0.2-5.6-0.4-8.3
		c-0.3-1.6-0.8-3.1-1.4-4.6c31.8,0.2,63.6,0.7,95.4,1.5c42.9,1.1,85.8,2.9,128.6,5.3c42.8,2.4,85.6,5.5,128.4,9.2
		c42.7,3.8,85.4,8.3,128,13.7c42.5,5.4,85,11.7,127.2,19.1s84.2,16,125.7,26.5c20.8,5.2,41.4,10.9,61.8,17.4
		c20.4,6.4,40.5,13.6,60.1,21.9c9.8,4.2,19.4,8.7,28.8,13.6c9.4,4.9,18.4,10.3,26.9,16.4c8.5,6.1,16.4,13,22.6,20.9
		c3,4,5.7,8.2,7.5,12.7s2.8,9.2,2.8,13.9C2030.2,613.8,2029.2,618.5,2027.3,622.9z"/>
	<g>
		<path class="st4" d="M1146.6,170.6L1146.6,170.6c-0.3-0.5-33.9-43.7-83.2-148.4l-0.8-1.7l-0.8,1.7
			c-49.3,104.7-87.4,154.9-89.4,158.3c-12,19.5-18.4,42.4-18.4,66c0,65.5,48.8,118.7,108.9,118.7c60,0,108.9-53.3,108.9-118.7
			C1171.8,217.6,1162.3,191.2,1146.6,170.6z"/>
	</g>
	<g>
		<path class="st5" d="M1314.9,195.4c0-4.6,3.5-8.1,7.9-8.1c4.6,0,8.1,3.5,8.1,8.1v14.5c8.7-12.8,21.3-23.8,41-23.8
			c25.7,0,51.1,20.3,51.1,55.5v0.4c0,35-25.3,55.7-51.1,55.7c-19.9,0-32.7-10.8-41-22.8v46.6c0,4.6-3.3,8.1-7.9,8.1
			s-8.1-3.5-8.1-8.1V195.4z M1406.6,242.2v-0.4c0-25.3-17.4-41.4-37.7-41.4c-19.9,0-38.7,16.8-38.7,41.2v0.4
			c0,24.8,18.8,41.4,38.7,41.4C1389.6,283.4,1406.6,268.1,1406.6,242.2"/>
		<path class="st5" d="M1661,242.4V242c0-30.2,23.6-55.9,55.9-55.9c32.1,0,55.7,25.3,55.7,55.5v0.4c0,30.2-23.8,55.9-56.1,55.9
			C1684.4,297.9,1661,272.6,1661,242.4 M1756.3,242.4V242c0-23-17.2-41.8-39.8-41.8c-23.2,0-39.1,18.8-39.1,41.4v0.4
			c0,23,17,41.6,39.5,41.6C1740.1,283.6,1756.3,265,1756.3,242.4"/>
		<path class="st5" d="M2018.2,151.3c0-4.3,3.5-8.1,7.9-8.1c4.6,0,8.1,3.7,8.1,8.1v137.1c0,4.6-3.3,8.1-7.9,8.1s-8.1-3.5-8.1-8.1
			V151.3z"/>
		<path class="st5" d="M2286.5,154.8c0-5.2,4.1-8.5,9.3-8.5c5.4,0,9.5,3.3,9.5,8.5v2.7c0,5-4.1,8.5-9.5,8.5c-5.2,0-9.3-3.5-9.3-8.5
			V154.8z M2287.9,195.4c0-4.3,3.5-8.1,7.9-8.1c4.5,0,8.1,3.5,8.1,8.1v93c0,4.6-3.3,8.1-7.9,8.1c-4.6,0-8.1-3.5-8.1-8.1V195.4z"/>
		<path class="st5" d="M73.3,306.6c-29.4,0-53.4-22.6-53.4-55.7v-0.4c0-30.8,21.7-55.7,51.4-55.7c31.7,0,49.7,25.9,49.7,54.3
			c0,4.4-3.5,7.5-7.5,7.5H36.1c2.3,23.2,18.6,36.2,37.7,36.2c13.3,0,23-5.2,30.9-12.4c1.2-1,2.7-1.9,4.6-1.9c3.9,0,7,3.1,7,6.8
			c0,1.9-0.8,3.7-2.5,5.2C103.6,300.2,91.6,306.6,73.3,306.6 M105,244.7c-1.7-19.5-12.8-36.4-34.2-36.4c-18.6,0-32.7,15.5-34.8,36.4
			L105,244.7L105,244.7z"/>
		<path class="st5" d="M353.7,251.1v-0.4c0-30.2,23.6-55.9,54.9-55.9c17.8,0,29.8,6.8,39.3,15.5c1.2,1,2.5,3.1,2.5,5.6
			c0,4.3-3.5,7.7-7.7,7.7c-2.1,0-3.9-0.8-5.2-1.9c-7.7-7-16.4-12.8-29.2-12.8c-21.7,0-38.3,18.4-38.3,41.4v0.4
			c0,23.2,17,41.6,39.3,41.6c12.2,0,21.9-5.6,29.8-13c1-1,2.5-2.1,4.6-2.1c3.9,0,7.2,3.5,7.2,7.2c0,1.9-0.8,3.7-2.1,5
			c-10.1,10.1-22.4,17.2-40.4,17.2C377.3,306.6,353.7,281.2,353.7,251.1"/>
		<path class="st5" d="M679.9,251.1v-0.4c0-30.2,23.6-55.9,54.9-55.9c17.8,0,29.8,6.8,39.3,15.5c1.2,1,2.5,3.1,2.5,5.6
			c0,4.3-3.5,7.7-7.7,7.7c-2.1,0-3.9-0.8-5.2-1.9c-7.7-7-16.4-12.8-29.2-12.8c-21.7,0-38.3,18.4-38.3,41.4v0.4
			c0,23.2,17,41.6,39.3,41.6c12.2,0,21.9-5.6,29.8-13c1-1,2.5-2.1,4.6-2.1c3.9,0,7.2,3.5,7.2,7.2c0,1.9-0.8,3.7-2.1,5
			c-10.1,10.1-22.4,17.2-40.4,17.2C703.5,306.6,679.9,281.2,679.9,251.1"/>
	</g>
	<g>
		<path class="st3" d="M1146.6,170.6L1146.6,170.6c-0.3-0.5-33.9-43.7-83.2-148.4l-0.8-1.7l-0.8,1.7
			c-49.3,104.7-87.4,154.9-89.4,158.3c-12,19.5-18.4,42.4-18.4,66c0,65.5,48.8,118.7,108.9,118.7c60,0,108.9-53.3,108.9-118.7
			C1171.8,217.6,1162.3,191.2,1146.6,170.6z"/>
		<g>
			<g>
				<g>
					<g>
						<path class="st6" d="M1049.4,163.9c-4,6.7-1.6,8.3-11.3,8.9c-4.2,1.2-8.6,5.2-11.6,8.8c-1.1,1.2-5,2.6-6.7,0.8
							c-3.3-3.7,0.2-7.6,2.7-10.3c-1.1-6.9-4.9-3.9-9.8-5.5C1017.4,160.4,1050.9,154.4,1049.4,163.9L1049.4,163.9z"/>
					</g>
					<g>
						<path class="st6" d="M1055.4,175.2c-2,3.6-7.2,2.5-9.5,0.4C1046.2,175.5,1056.2,173.6,1055.4,175.2L1055.4,175.2z"/>
					</g>
					<g>
						<path class="st6" d="M1033.2,283.9c-1.1,5.1-2.2,10.2-3.3,15.4c-1.2,5.7-4.3,5.2-3.6,12.6c0.5,5.4-3.4,8.7-3.8,13.2
							c-5.3,3.1,9.4,12.6,9.4,14.2c-14.1,1.4-22.6-25.1-26.2-34.6c-3.9-10.3-18.2-15.3-17.9-27.5c0.3-12.6-2.9-14.3-10.7-22.4
							c-2.7-2.8-7.3-3.7-9-6c-4-5.4-3.9-14.2-4.4-20.6c0.1,3.9,0.3,7.8,0.7,11.7c-4.3-11.7-1.3-25.5,2.9-36.8
							c2.8-7.5,9-21.6,16.6-25.2c0.8,0.3,1,0.9,0.4,1.7c4.6-2.9,10.7-3.5,15.3-4.8c0.1,3.4-6.2,5.8-8.9,8.1
							c-6.9,5.7-1.3,7.4,0.3,13.1c1.8-0.9,8.9-16.7,11.2-13.8c0.8,1,1.8,8.7,4.9,2.7c10.1,9-4,11-9.3,15.7c10.4-3.4-4.6,7.6-6.3,10
							c-1.6,2.3-2.8,5.2-4.5,7.4c-4.8,6.3-3.1,9.7-4,17c-4.7-0.9,1.3-9.9-7-7.4c-3.2,1-4.6,4.2-5.1,7.2c-0.4,3-0.2,6.1,0.5,9
							c1.1,4.8,3.8-1.2,5.2-2.9c1.7,1.7-0.1,6.5-0.2,9.1c3.3-1.5,4.2,3.5,4.9,5.6c1.5,4.5,4.6,2.3,5.8,6.2
							c1.4-10.6,4.2-5.2,12.2-5.5c3.8-0.1,5.2,7.4,9.7,7c3.5-0.3,4.1,2.9,5.3,5.4c1.6,3.2,5.1,4.2,8.3,5.1
							C1027.6,275.3,1034.6,277,1033.2,283.9L1033.2,283.9z"/>
					</g>
					<g>
						<path class="st6" d="M992.6,171c-0.8,0.7-1.6,1.1-2.6,1.4C989.7,171,993.9,169.8,992.6,171L992.6,171z"/>
					</g>
					<g>
						<path class="st6" d="M986.1,177c1-1.5,2-3,3.1-4.4c3.5-0.4-5.2,5.8,2.9-0.1C991.3,176.3,989.6,176.1,986.1,177L986.1,177z"/>
					</g>
					<g>
						<path class="st6" d="M1008.4,166.6c-1.5,3.4-6.5,5.2-5.7-0.5c3.5-4.5,9.1-4.2,14.3-4.7C1014.2,163.1,1011,164.4,1008.4,166.6
							L1008.4,166.6z"/>
					</g>
					<g>
						<path class="st6" d="M1010.3,178.4c-2.3,3.7-9,2.9-7.1,0.2c2.4-3.5,2.2-4.6-2.7-4C996.3,167.4,1014.3,171.9,1010.3,178.4
							L1010.3,178.4z"/>
					</g>
					<g>
						<path class="st6" d="M1102.1,197.9c-2.6,2.1-0.8,4.8-0.7,7.1c-7.9-1.1-2,3-4.6,5.7c0.3-0.3-9.8-12.1-12.9-11.7
							c-1.3,4,7.6,4.8,7.4,7.3c-2.1-0.7-2.8,2.3-3.2,4.5c-1.2-0.3-2.2-0.8-3.2-1.5c0.9-1.2,6.9-0.6,2.1-3.8
							c-1.3-0.8-5.4-4.9-6.8-5.2c-6.1-1.2-8.3,7.6-12.1,10.6c-5.3,4.1-8.4-1.1-8.1-6.3c0.7-9.3,13.9,3.2,4.7-9.2
							c0.1-0.2,9-4.2,9.2-4.3c5.3-3.6,3-2,3.4-6c0,0.1,6.6,2.6,9.9,2.3c4.6-0.5,1.7-2.8,5.6-3.1c0.4-1.2-0.1-7.4,3.1-3.4
							C1097.7,183.1,1103.3,196.9,1102.1,197.9L1102.1,197.9z"/>
					</g>
					<g>
						<path class="st6" d="M1063.3,187.7c-0.5,2.3-4.5,6-4.2,2C1059.3,187.8,1063.7,186.2,1063.3,187.7L1063.3,187.7z"/>
					</g>
					<g>
						<path class="st6" d="M1071.1,189.6c-2.4,1.9-3.9,4.3-7,1.4c0.9-1.5,0.6-1.9,0.3-3.6c-0.1-0.9-2-2.2-2-2.2
							c-0.2-2,4.1-4.1,2.3-1.6c0.8,0.1,1.5,0.1,2.3,0.2c-0.4,0.7-0.8,1.4-1.3,2.2C1068.1,184.6,1069.2,191.2,1071.1,189.6
							L1071.1,189.6z"/>
					</g>
					<g>
						<path class="st6" d="M1081.5,207.3c0.1,1.8-3.7-2-0.3-2.1C1081.1,206,1081.2,206.6,1081.5,207.3L1081.5,207.3z"/>
					</g>
					<g>
						<path class="st6" d="M1128.6,252c-1.4,8.4-8.3,14.6-12.5,21.6c-2.4,4.1-0.4,8.7-1.2,13.1c-0.8,4.3-4.3,6-7.2,8.7
							c-2.9,2.9-3.2,9.7-6.5,12.8c-3.1,2.9-6.3,6.9-10.9,7.1c-3.9,0.1-1.3-5-2.7-7.2c-2.1-3.2-3.6-14.7-2.3-18.8
							c1.6-5.1,4.1-6.9,1.4-12.8c-2.6-5.6-2.9-7-2.5-12.9c0.5-8.1-17.9-3.7-20.9-1.4c-10.2-6.6-14.8-21-10-32.2
							c1.7-4,5.5-5.9,7-10.3c1.5-4.5,3.3-6.5,7.9-6.9c4.5-0.3,9.8-1.5,13.9-3.1c4.2,2.6-1.9,6.1,5.4,7.7c1.3,0.3,6.5,4.5,6.9,1.4
							c0.4-3.2,1.9-2.7,4.5-1.7c4.2,1.6,2.7,3,4.1,4c3.8-3.8,5.9-0.2,7.3-6c0.8,1.6,1.3,7.7,0,9.1c-1-0.8-1.7-1.8-2.2-3
							c3.4,8.2,6.2,16.6,10.3,24.4c3.5,6.8,2.8,6.6,10.1,3.5C1128.7,250.2,1128.7,251.1,1128.6,252L1128.6,252z"/>
					</g>
					<g>
						<path class="st6" d="M1158.1,235.7C1158.2,235.7,1158.3,235.8,1158.1,235.7L1158.1,235.7z"/>
					</g>
					<g>
						<path class="st6" d="M1125.9,199c-0.6,1.4-1.9,2-3.8,1.6c1.3,1.8,4.5,3.1,5,5c-0.6-0.2-1-0.1-1.4,0.4c0.6,0.6,4.9,5.6,1.5,5.6
							c-5.7-0.1-4.6-7.5-11-7.3c3.1-1,3.6,1.9,6.2,2.4c0.2-0.1-8.8-10.7-6.2-13.2C1116.5,193.2,1125.9,197.1,1125.9,199L1125.9,199z
							 M1166.3,219.4c-6.2-18.8-15.7-36.1-30.6-49.4c-2.1-1.6-5.4-4.7-8.1-5.6c0.2,2.7-4.1,2.4-1.9,4.7c-7-1.8,0.8,1.2,0.5,4.1
							c-2.3,0-6.2-7.5-7.7-5.6c0.3,1.5,3.3,4.7,3.9,5.5c-4.2-2.8-5.5-1.2-9.8-0.3c-4.9,1-4.1-2-7.7-1.7c3.3,5.6-5.5,4.2-7.8,1.4
							c2.3-0.9,3.9,2.1,6.2,0.7c-2.5-8.7-18.5-2.5-23.3-0.2c2.6-0.1-6.7,5.8-6.6,5.5c-1.8,5.9,4,3.3,5.9,3c1.1,1.6,2.2,3.4,3.5,4.8
							c1.4-0.7,1.9-4,3.4-4c2.8-0.3-2.1-3.8-0.8-5.5c0.6-0.9,7.3-4.2,5.9-1.4c-0.9,1.7-5.1,1-1.7,4.5c1.8,1.8,5.3-1.7,6.7,0.4
							c2.1,3.1,3.1,6.6,4,10.2c1.5,5.5,2,4.8,5.5,7.7c-0.1,1.2,0.3,4.1,2.8,1.4c-0.6-0.9-1.4-0.3-1.9-1.4c1.2-0.8,2.4-1.3,3.9-1.5
							c0.2,2.9,0.8,6.7,4.7,8.1c-1.4,0.4-2.4,1.2-3.2,2.5c3.4-5.7-13.6-2.5-12,0.2c2.2,3.7,7.2,7.5,9.8,2.8
							c-0.5,2.1,1.3,10.8,1.8,13.3c0.9,5.3,4.5,10.8,6.6,15.7c2.2,4.9,2.8,11.3,8.9,7.3c2.9-1.9,5.7-4.5,7.6-7.5
							c3.2-5-0.2-6.7-1.8-11.5c-3.1,1.2-1.6,6.2-5.5,1c-1-1.4-4.6-6.2-2.4-7.9c1.9,0.6,3.3,2.7,4.1,4.4c0.8,1.6,2.6-0.3,3.7,0.5
							c3.1,2.2,5.2,1.2,8.2,2.8c2.5,1.3,1.1,3.9,4.4,4.2c0,0,0.7,6.4,1.2,2.1c1.7,2,1.4,10.3,1.8,11.9c2.4,3.4-1.8,7.7,1.9,10.7
							c3.9-3.2,2.6-10.8,4.6-15c5.1-11,4.5-5.3,6.4,3.8c0.6-0.5,1.1-1,1.6-1.5c3.2,7.4-0.8,17.1,0.4,25.1c2.5-6.3-0.9-13.1,1-19.5
							c1.4,1.9,0.9,6.2,0.8,8.5c1.8-3.1,2.5-6.2,1.9-9.8c-1-6.1,1-9.6,1.3-15.5c0.4-7.7-3.3-15.6-5.6-22.7
							C1164.5,213.1,1164.5,216.5,1166.3,219.4L1166.3,219.4z"/>
					</g>
					<g>
						<path class="st6" d="M1113.1,205C1113,205,1113,204.4,1113.1,205L1113.1,205z"/>
					</g>
					<g>
						<path class="st6" d="M1122.2,290.8c-0.6,1.4-10.7,17.8-9,10.9c0.7-2.8,2-7.8,3.5-10.1c0,0,7.4-6.8,6.1-6.5
							C1123.3,286.6,1122.8,289.5,1122.2,290.8L1122.2,290.8z"/>
					</g>
					<g>
						<path class="st6" d="M1152.7,254.2C1152.7,254.1,1152.7,254.1,1152.7,254.2C1152.7,254.1,1152.7,254.1,1152.7,254.2
							L1152.7,254.2z M1153.3,258.8c0.1-0.5,0-5.1-0.5-5.1c-0.9,0.5-1,5.7-0.7,6.3C1152.9,260.2,1153.3,259.8,1153.3,258.8
							L1153.3,258.8z"/>
					</g>
					<g>
						<path class="st6" d="M1161.4,279.4c-0.9-0.2-0.3-17.3,0-17.3C1164.4,261.9,1161.6,278.8,1161.4,279.4L1161.4,279.4z"/>
					</g>
					<g>
						<path class="st6" d="M1162.3,284.4c-0.2,0.3-0.1-2.2-1.1-2c0,0.1,0,0.2-0.1,0.2c0,0-0.2-2.6,0.6-2.6
							C1162.7,281,1163.2,282.8,1162.3,284.4L1162.3,284.4z"/>
					</g>
					<g>
						<path class="st6" d="M1112.5,169.3C1111.9,169.5,1111.8,169.6,1112.5,169.3L1112.5,169.3z M1111.8,169
							C1111.2,168.8,1112.2,169,1111.8,169L1111.8,169z M1115.3,164.4c-0.9-1.2-11.9,0-3.6,4.5
							C1109.5,165.3,1116.8,166.4,1115.3,164.4L1115.3,164.4z"/>
					</g>
					<g>
						<path class="st6" d="M1081.2,160.8C1081.6,161,1081.6,161,1081.2,160.8L1081.2,160.8z"/>
						<path class="st6" d="M1080.4,160.6C1081.2,160.8,1081.2,160.8,1080.4,160.6L1080.4,160.6z"/>
						<path class="st6" d="M1084.9,160.8c1.1-2.5-19.3,0.5-6,3.2c1.7,0.4,1-2.6,2.3-3.1c0.7,1.5,1.9,2.3,3.4,2.4
							c-0.3-0.5-0.7-0.9-1.2-1.2C1083.9,161.7,1084.4,161.3,1084.9,160.8L1084.9,160.8z"/>
					</g>
					<g>
						<path class="st6" d="M1125.8,163.4c1.4,1.2-5.8-2.9-5.2-3.1C1121.6,160.1,1124.9,162.7,1125.8,163.4L1125.8,163.4z"/>
					</g>
					<g>
						<path class="st6" d="M1144.8,318.4c0.5-0.6,1-1.2,1.5-1.8c-3.5,4.2,2.4-2.3,0.6-1.1c-0.8,0.5-3.3,3.5-4.1,2.9
							c5.4-8.5,12.1-16.2,17.7-24.6c0.1,0.5,0.3,0.2,0.6-0.9C1156.6,301.6,1151.8,311.4,1144.8,318.4L1144.8,318.4z"/>
					</g>
					<g>
						<path class="st6" d="M1013,199.2c-0.4,1.3-5.7,0.3-7.3,0.3C1006.8,196.6,1014.4,195.1,1013,199.2L1013,199.2z"/>
					</g>
					<g>
						<path class="st6" d="M985.4,242.9C985.5,243.3,985.5,243.3,985.4,242.9L985.4,242.9z M985.4,242.9
							C986.1,244.1,984.1,240.5,985.4,242.9L985.4,242.9z M988.5,242.5c2.4-6.2-9.4-3.9-7.3-2.9
							C982.7,240.3,987.7,244.8,988.5,242.5L988.5,242.5z"/>
					</g>
					<g>
						<path class="st6" d="M994,244.1c-1.3,0-2.6,0.2-3.7,0.8C985.7,237.6,994.9,243.6,994,244.1L994,244.1z"/>
					</g>
					<g>
						<path class="st6" d="M994.6,173.9c0.1,0-2.2,0.2-1.9,0.2c0-0.5,2.5-2.4,2.7-2.4C996.8,171.8,993.7,174.2,994.6,173.9
							L994.6,173.9z"/>
					</g>
					<g>
						<path class="st6" d="M996,173.1C995.9,173.1,995.1,173.7,996,173.1L996,173.1z M995.8,173.1L995.8,173.1L995.8,173.1z
							 M998.9,171.4c1.9-2-3,1.4-3.2,1.7C997,172.9,998.1,172.3,998.9,171.4L998.9,171.4z"/>
					</g>
					<g>
						<path class="st6" d="M997.8,169.7c-0.5,0.6-1.1,1-1.9,1.3C995.6,169.7,1000.1,167.4,997.8,169.7L997.8,169.7z"/>
					</g>
				</g>
			</g>
		</g>
	</g>
</g>
</svg>
